PathFileType	4	(X/Y/Z)	E:\3-PhD\Data\MocapData\ElaboratedData\009\pre\dynamicElaborations\RunA2\RunA2.trc
DataRate	CameraRate	NumFrames	NumMarkers	Units	OrigDataRate	DataStartFrame
200	200	6	54	mm	200	289
Frame#	Time	FHD			LBHD			RBHD			C7			T10			CLAV			LSHO			LUUPA			LMUPA			LDUPA			LLEP			LMEP			LRAD			LUL			LRFIN			RSHO			RUPA1			RMUPA			RDUPA			RLEP			RMEP			RRAD			RUL			RUFIN			RASI			USACR			LSACR			RSACR			LTHI1			LTHI2			LTHI3			LTHI4			LTIB1			LTIB2			LTIB3			LTIB4			LLMAL			LHEE			LMT1			LMT2			RTHI			RTHI2			RTHI3			RTHI4			RLFC			RTIB1			RTIB2			RTIB3			RTIB4			RLMAL			RHEE			RMT1			RMT2			RMT5		
		X1	Y1	Z1	X2	Y2	Z2	X3	Y3	Z3	X4	Y4	Z4	X5	Y5	Z5	X6	Y6	Z6	X7	Y7	Z7	X8	Y8	Z8	X9	Y9	Z9	X10	Y10	Z10	X11	Y11	Z11	X12	Y12	Z12	X13	Y13	Z13	X14	Y14	Z14	X15	Y15	Z15	X16	Y16	Z16	X17	Y17	Z17	X18	Y18	Z18	X19	Y19	Z19	X20	Y20	Z20	X21	Y21	Z21	X22	Y22	Z22	X23	Y23	Z23	X24	Y24	Z24	X25	Y25	Z25	X26	Y26	Z26	X27	Y27	Z27	X28	Y28	Z28	X29	Y29	Z29	X30	Y30	Z30	X31	Y31	Z31	X32	Y32	Z32	X33	Y33	Z33	X34	Y34	Z34	X35	Y35	Z35	X36	Y36	Z36	X37	Y37	Z37	X38	Y38	Z38	X39	Y39	Z39	X40	Y40	Z40	X41	Y41	Z41	X42	Y42	Z42	X43	Y43	Z43	X44	Y44	Z44	X45	Y45	Z45	X46	Y46	Z46	X47	Y47	Z47	X48	Y48	Z48	X49	Y49	Z49	X50	Y50	Z50	X51	Y51	Z51	X52	Y52	Z52	X53	Y53	Z53	X54	Y54	Z54	

289	1.440000	-791.733499	1537.699926	116.555195	-990.202946	1538.081592	97.128461	-910.391728	1533.022004	194.592344	-1034.978104	1419.698737	123.833928	-1233.495403	1128.203257	122.411877	-940.470116	1288.083086	113.969034	-955.698609	1352.218944	-24.057754	-1051.855196	1231.215708	-158.289678	-1044.586856	1185.736115	-143.481656	-1085.014731	1177.376877	-187.314437	-1165.775498	1097.164072	-230.207933	-1218.499903	1098.949611	-173.149387	-1142.244600	836.659740	-185.803208	-1197.204053	829.149554	-232.787282	-1120.544522	764.558246	-206.154861	-979.131662	1352.409890	281.211496	-1103.756039	1281.736651	384.156647	-1094.239882	1236.985022	397.032547	-1152.410006	1249.350369	423.525750	-1231.522018	1156.365329	485.858643	-1261.454290	1129.081859	423.736195	-1038.539699	969.144618	457.389037	-1082.045397	938.557492	502.564332	-984.092400	951.871670	512.080959	-1061.427962	945.951382	200.419410	-1264.420087	1037.359095	144.855029	-1279.132601	1002.254615	125.696063	-1258.621137	1010.806770	180.301971	-1142.199527	668.704125	-50.182553	-1079.945418	612.015174	-65.945194	-1037.670029	634.343654	-68.278581	-1076.962645	552.458689	-49.960725	-1075.884461	350.750044	71.710252	-1159.527826	379.301306	57.868972	-1134.633240	349.446528	75.915317	-1178.909080	329.374307	146.922649	-1324.735875	323.881656	210.995269	-1374.051714	381.419552	281.234774	-1252.338361	192.557499	276.158455	-1270.680693	186.535797	232.857013	-1012.740061	768.809697	340.848893	-959.237078	731.931149	337.876071	-934.711402	735.974772	315.022780	-956.546721	649.236511	363.837752	-902.749269	554.842253	379.811507	-815.237149	354.284433	418.129404	-849.383216	293.754631	503.235768	-812.449621	290.078155	474.902890	-799.006594	235.717961	462.416232	-823.943307	155.670081	544.701219	-897.643962	102.702876	534.634692	-683.357219	75.051517	469.272798	-674.439587	81.834675	510.425168	-700.978060	68.643664	570.834030	
290	1.445000	-765.333336	1533.002134	106.681900	-964.227072	1532.394130	90.625075	-882.597106	1527.820388	186.778306	-1008.192869	1415.111044	118.018603	-1208.491139	1124.001231	121.212391	-914.668115	1282.829138	107.352327	-931.295268	1345.363019	-31.302786	-1031.190937	1222.182011	-162.181156	-1024.336617	1177.003410	-146.457249	-1065.242476	1168.035173	-189.748984	-1147.289789	1088.533434	-229.350050	-1199.484323	1093.855312	-172.271386	-1141.117826	827.153077	-183.382488	-1196.404286	823.336218	-230.711423	-1124.949508	753.089732	-203.485611	-950.709745	1347.439853	275.112640	-1071.344572	1273.987153	381.671074	-1060.631077	1229.442000	393.969447	-1118.086472	1240.498148	422.884291	-1193.245245	1145.654425	486.156580	-1224.774588	1118.017363	425.044538	-996.611287	963.924618	448.908760	-1037.237585	931.806638	495.033212	-939.640558	947.640093	500.997086	-1035.929591	942.766770	198.632643	-1239.530420	1032.579626	144.125025	-1254.295138	997.460612	124.987993	-1233.324060	1006.019632	179.489551	-1114.170872	668.130984	-55.865225	-1050.721129	613.492904	-73.895673	-1009.103742	637.060643	-76.329696	-1045.788801	553.746943	-59.101088	-1038.096516	353.103328	60.754381	-1122.314064	380.617693	48.446826	-1096.722926	351.010134	66.020173	-1139.423979	330.303967	137.882358	-1283.762815	322.669682	204.725890	-1332.848511	378.879958	276.277178	-1207.633716	192.575602	267.770848	-1226.765823	186.406576	224.729523	-989.995902	762.613032	341.152022	-936.832148	725.349473	339.555046	-911.284847	729.763157	317.836215	-935.527214	642.210746	363.731655	-882.161071	547.985951	379.754962	-801.493368	344.591575	418.880414	-839.176074	285.576312	502.659995	-801.938235	280.367350	475.153977	-790.931340	225.751690	463.799421	-820.386159	147.475069	546.133728	-894.917798	95.609335	536.239458	-680.625331	67.673607	471.430679	-671.581002	73.829986	512.401857	-698.550788	60.178381	573.232301	
291	1.450000	-739.195856	1528.116567	96.565570	-938.458229	1526.566716	83.770715	-855.088187	1522.466520	178.635928	-981.657822	1410.317332	111.945600	-1183.496702	1119.506954	119.838822	-889.032318	1277.299567	100.550824	-907.109841	1338.238156	-38.698489	-1011.015616	1213.388474	-166.071994	-1004.557796	1168.464157	-149.536766	-1046.109821	1159.063255	-192.130282	-1129.453045	1080.517244	-228.693675	-1180.911260	1089.048646	-171.496092	-1139.453002	819.439000	-180.971843	-1194.786590	819.045511	-228.698675	-1128.597719	743.821991	-200.844582	-922.256110	1342.250435	268.849509	-1038.422148	1265.735644	379.081939	-1026.449911	1221.430683	390.685544	-1083.043179	1231.050148	422.125276	-1153.863959	1134.214761	486.023791	-1187.129703	1106.276256	426.159765	-954.158149	958.440938	439.456700	-991.773427	924.775126	486.558955	-894.641029	943.172119	488.661961	-1010.452270	939.435464	197.004849	-1214.647813	1027.485350	143.249046	-1229.422738	992.305909	124.189450	-1208.046602	1000.982078	178.578302	-1086.177361	667.571499	-61.488898	-1021.580380	615.137722	-81.835855	-980.655155	639.966535	-84.392730	-1014.646358	555.289620	-68.271160	-999.841979	355.586476	49.710915	-1084.669161	381.742450	39.107162	-1058.257697	352.472423	56.116646	-1099.162736	330.925315	128.841635	-1241.740055	320.584726	198.691682	-1290.557602	375.271089	271.666287	-1161.509944	192.021952	259.421368	-1181.486241	185.650756	216.652565	-967.558819	756.070306	341.801607	-914.788634	718.337624	341.628928	-888.251438	722.957646	321.054778	-914.966082	634.750204	363.931703	-861.940627	540.640643	379.923067	-788.801573	334.692233	419.891968	-830.340928	277.458680	502.268472	-792.793182	270.560622	475.618792	-784.313218	215.782295	465.431793	-818.542340	139.528467	547.795802	-893.557723	88.269402	538.141956	-679.185935	62.101703	473.633956	-670.009914	67.590522	514.436627	-697.225856	53.125284	575.717588	
292	1.455000	-713.338192	1523.100003	86.219472	-912.910997	1520.655314	76.589953	-827.880450	1517.026789	170.189132	-955.384999	1405.347884	105.640848	-1158.505798	1114.784237	118.240194	-863.553109	1271.521404	93.572397	-883.144853	1330.906685	-46.232594	-991.322917	1204.976071	-169.973241	-985.261928	1160.244271	-152.715288	-1027.598965	1150.620185	-194.483042	-1112.270210	1073.243605	-228.280219	-1162.809126	1084.629653	-170.857071	-1137.055561	813.413445	-178.622856	-1192.213043	816.130404	-226.789044	-1131.202491	736.607599	-198.269403	-893.770083	1336.894886	262.419950	-1004.981362	1257.072612	376.290641	-991.715052	1213.043006	387.086413	-1047.282529	1221.121576	421.097753	-1113.405425	1122.160232	485.283435	-1148.538948	1093.969661	426.931826	-911.280777	952.862821	428.983761	-945.761452	917.617680	477.043656	-849.212907	938.650256	475.032803	-985.026547	935.937599	195.513718	-1189.775679	1022.151251	142.166529	-1204.513831	986.864342	123.250809	-1182.793218	995.784842	177.514674	-1058.273142	667.010858	-67.029070	-992.595429	616.920037	-89.733319	-952.405562	643.025682	-92.444549	-983.622130	557.068830	-77.419914	-961.206131	358.220057	38.593014	-1046.668061	382.696716	29.881367	-1019.321528	353.860089	46.222951	-1058.206470	331.280049	119.795030	-1198.699293	317.682888	192.866635	-1247.182634	370.648787	267.385440	-1114.028162	190.964448	251.024997	-1134.891523	184.346527	208.546814	-945.430402	749.319758	342.687397	-893.119270	711.029810	343.932063	-865.647666	715.682370	324.475706	-894.867488	627.014372	364.359779	-842.154478	532.922798	380.314207	-777.111327	324.778621	421.160856	-822.746146	269.585643	502.120008	-784.918158	260.873372	476.325971	-778.986203	206.028156	467.276306	-818.109815	132.006071	549.639315	-893.299168	80.865178	540.289775	-678.805208	58.264192	475.786343	-669.491469	63.085798	516.431643	-696.734757	47.548447	578.168431	
293	1.460000	-687.770781	1518.015406	75.658598	-887.595429	1514.716052	69.115246	-800.979818	1511.568701	161.466250	-929.371790	1400.247382	99.138180	-1133.517758	1109.910401	116.363116	-838.217705	1265.532436	86.420680	-859.406106	1323.444464	-53.901214	-972.115642	1197.091983	-173.910317	-966.454781	1152.480718	-156.025108	-1009.690667	1142.872659	-196.862051	-1095.727805	1066.829457	-228.149267	-1145.187707	1080.695620	-170.392462	-1133.752591	808.950622	-176.389784	-1188.586166	814.433321	-225.001121	-1132.519286	731.272805	-195.799025	-865.240467	1331.437511	255.816477	-971.021145	1248.106861	373.183377	-956.453704	1204.387054	383.063448	-1010.820078	1210.846377	419.631215	-1071.931857	1109.624983	483.762526	-1109.039466	1081.223132	427.188581	-868.081783	947.375945	417.444894	-899.311946	910.504516	466.383655	-803.501040	934.281021	460.114528	-959.690329	932.266131	194.129421	-1164.927879	1016.663575	140.806908	-1179.576075	981.221896	122.109921	-1157.577853	990.528909	176.232821	-1030.511875	666.429774	-72.463792	-963.839078	618.804213	-97.551790	-924.441844	646.196359	-100.457528	-952.799729	559.059118	-86.492407	-922.270387	361.018351	27.418117	-1008.379917	383.496375	20.797585	-979.995667	355.196966	36.356500	-1016.639454	331.410121	110.729241	-1154.671228	314.026754	187.210704	-1202.731098	365.080991	263.392542	-1065.249173	189.484864	242.492225	-1087.024330	182.579473	200.330142	-923.595596	742.531833	343.659888	-871.818397	703.594947	346.261857	-843.489009	708.111688	327.863887	-875.210784	619.203043	364.918382	-822.871459	524.993329	380.899511	-766.327006	315.055482	422.653890	-816.150914	262.134281	502.254521	-778.115266	251.538111	477.280269	-774.706348	196.708110	469.262183	-818.678934	125.085840	551.616385	-893.835209	73.655013	542.593067	-679.217202	55.909668	477.797430	-669.754741	60.090952	518.284189	-696.812768	43.347872	580.464983	
294	1.465000	-662.495661	1512.928532	64.901399	-862.515271	1508.805853	61.384764	-774.383277	1506.158521	152.498973	-903.601760	1395.076187	92.474261	-1108.536231	1104.972643	114.152123	-813.011745	1259.383701	79.094367	-835.902387	1315.938797	-61.706713	-953.397681	1189.879047	-177.920982	-948.131605	1145.307600	-159.529015	-992.361558	1135.978483	-199.342905	-1079.793930	1061.375605	-228.336577	-1128.036402	1077.338729	-170.139721	-1129.394190	805.910740	-174.331372	-1183.849024	813.796916	-223.332191	-1132.350214	727.627879	-193.472377	-836.648168	1325.954628	249.023228	-936.552002	1238.966518	369.632973	-920.705113	1195.587984	378.496450	-973.689177	1200.376432	417.541708	-1029.547175	1096.766014	481.304988	-1068.690016	1068.180312	426.739883	-824.671390	942.177925	404.800733	-852.542317	903.621925	454.478611	-757.676411	930.289483	443.956766	-934.482502	928.434083	192.814417	-1140.124847	1011.120109	139.091423	-1154.624264	975.476549	120.692165	-1132.421665	985.322618	174.655615	-1002.944926	665.807023	-77.775141	-935.381274	620.752026	-105.251172	-896.847119	649.434320	-108.403471	-922.255891	561.229800	-95.431638	-883.118940	363.991530	16.210733	-969.866267	384.150871	11.876864	-940.356963	356.504293	26.532874	-974.545892	331.356476	101.625796	-1109.686502	309.685677	181.670502	-1157.216481	358.646280	259.621658	-1015.237958	187.679086	233.736880	-1037.933429	180.442033	191.931071	-902.020294	735.899832	344.552624	-850.854976	696.229419	348.404616	-821.765747	700.460228	330.977709	-855.948328	611.543546	365.505716	-804.154844	517.047544	381.626705	-756.317758	305.713875	424.307370	-810.250130	255.247310	502.671293	-772.114412	242.773675	478.464401	-771.188106	188.019429	471.299061	-819.813083	118.931519	553.681808	-894.859377	66.932831	544.932450	-680.139667	54.716138	479.608792	-670.519042	58.291760	519.926831	-697.223656	40.327092	582.527873	
